<?xml version="1.0" encoding="UTF-8"?>
<!-- Generator: Adobe Illustrator 16.0.0, SVG Export Plug-In . SVG Version: 6.00 Build 0)  -->
<!DOCTYPE svg PUBLIC "-//W3C//DTD SVG 1.1//EN" "http://www.w3.org/Graphics/SVG/1.1/DTD/svg11.dtd">
<svg version="1.1" id="Layer_1" xmlns="http://www.w3.org/2000/svg" xmlns:xlink="http://www.w3.org/1999/xlink" x="0px" y="0px" width="250.018px" height="42.453px" viewBox="1.365 4.484 250.018 42.453" enable-background="new 1.365 4.484 250.018 42.453" xml:space="preserve">
<title>logo-justiciapedia</title>
<desc>Created with Sketch.</desc>
<g id="Mob">
	<g id="mob-buscar" transform="translate(-23.000000, -37.000000)">
		<g id="header-mob">
			<g id="Group-3" transform="translate(20.000000, 12.000000)">
				<g id="logo-justiciapedia" transform="translate(0.000000, 17.000000)">
					<g transform="translate(0.000000, 8.000000)">
						<path id="pedia" d="M174.5,27.537c-0.73,3.652-1.848,6.385-3.352,8.196s-3.423,2.718-5.758,2.718        c-1.017,0-1.926-0.215-2.729-0.645c-0.802-0.43-1.468-1.045-1.998-1.848l-2.191,10.979h-4.318l6.424-32.184h3.867l-0.193,2.02        c0.717-0.802,1.515-1.411,2.396-1.826s1.823-0.623,2.825-0.623c2.178,0,3.756,1.217,4.737,3.652        c0.981,2.436,1.114,5.471,0.397,9.109L174.5,27.537z M170.289,27.086c0.559-2.807,0.634-5.07,0.226-6.789        s-1.328-2.578-2.761-2.578c-0.773,0-1.508,0.287-2.202,0.859s-1.321,1.34-1.88,2.299l-2.363,11.838        c0.244,0.787,0.641,1.389,1.192,1.805s1.286,0.623,2.202,0.623c1.318,0,2.442-0.677,3.373-2.03        c0.932-1.354,1.633-3.212,2.105-5.575L170.289,27.086z M187.344,38.451c-2.551,0-4.49-0.967-5.822-2.9        s-1.756-4.383-1.268-7.348l0.537-3.395c0.5-3.15,1.672-5.686,3.512-7.605c1.841-1.919,3.971-2.879,6.393-2.879        c2.434,0,4.207,0.91,5.316,2.729c1.11,1.818,1.43,4.225,0.957,7.219l-0.473,3.008H184.68l-0.15,0.924        c-0.344,2.092-0.215,3.771,0.387,5.038s1.676,1.901,3.223,1.901c1.102,0,2.105-0.193,3.008-0.58s1.775-0.938,2.621-1.654        l0.924,2.707c-0.832,0.83-1.877,1.512-3.137,2.041C190.293,38.186,188.891,38.451,187.344,38.451z M190.158,17.676        c-1.117,0-2.131,0.615-3.041,1.848c-0.909,1.232-1.557,2.779-1.943,4.641h7.541l0.15-0.881        c0.271-1.705,0.189-3.064-0.248-4.082C192.181,18.184,191.361,17.676,190.158,17.676z M202.355,26.227        c0.788-3.967,1.955-6.943,3.502-8.927c1.547-1.984,3.502-2.976,5.865-2.976c0.96,0,1.834,0.233,2.621,0.698        c0.788,0.465,1.439,1.128,1.955,1.987l2.514-12.525h4.297L216.406,38h-3.76l0.172-2.063c-0.744,0.83-1.561,1.457-2.449,1.88        c-0.888,0.423-1.833,0.634-2.836,0.634c-2.148,0-3.734-1.125-4.758-3.373c-1.024-2.248-1.2-5.049-0.527-8.4L202.355,26.227z         M206.566,26.678c-0.529,2.592-0.587,4.641-0.172,6.145c0.416,1.504,1.34,2.256,2.771,2.256c0.788,0,1.533-0.279,2.234-0.838        c0.702-0.559,1.34-1.324,1.912-2.299l2.277-11.387c-0.243-0.873-0.641-1.564-1.191-2.073        c-0.552-0.509-1.258-0.763-2.117-0.763c-1.317,0-2.452,0.77-3.404,2.31c-0.953,1.54-1.688,3.606-2.203,6.198L206.566,26.678z         M228.412,38h-4.297l4.641-23.246h4.297L228.412,38z M234.277,8.652h-4.297l0.838-4.168h4.297L234.277,8.652z M247.291,38        c-0.027-0.572-0.043-1.104-0.043-1.59s0.029-0.967,0.086-1.439c-0.816,1.031-1.743,1.869-2.781,2.514        c-1.039,0.645-2.109,0.967-3.213,0.967c-1.746,0-3.061-0.631-3.941-1.891s-1.113-2.908-0.699-4.941        c0.473-2.363,1.537-4.143,3.191-5.339s3.813-1.794,6.477-1.794h3.008l0.473-2.385c0.287-1.504,0.227-2.632-0.182-3.384        s-1.164-1.128-2.268-1.128c-0.902,0-1.732,0.361-2.492,1.085c-0.758,0.724-1.238,1.614-1.439,2.675l-4.104-0.021l-0.043-0.129        c0.316-1.904,1.314-3.527,2.998-4.866c1.683-1.339,3.684-2.009,6.004-2.009c2.063,0,3.674,0.688,4.834,2.063        s1.498,3.295,1.01,5.758l-2.17,10.785c-0.186,0.945-0.307,1.818-0.365,2.621c-0.057,0.803-0.049,1.619,0.021,2.449H247.291z         M242.994,35.1c0.875,0,1.766-0.301,2.676-0.902c0.909-0.602,1.643-1.346,2.201-2.234l0.945-4.77h-3.051        c-1.145,0-2.162,0.438-3.051,1.311c-0.887,0.873-1.445,1.904-1.676,3.094c-0.229,1.117-0.178,1.98,0.15,2.589        C241.52,34.795,242.121,35.1,242.994,35.1z"/>
						<g id="Justicia">
							<g id="Mask">
							</g>
							<defs>
								<filter id="Adobe_OpacityMaskFilter" filterUnits="userSpaceOnUse" x="4.365" y="4.484" width="149.393" height="33.967">
									<feColorMatrix type="matrix" values="1 0 0 0 0  0 1 0 0 0  0 0 1 0 0  0 0 0 1 0"/>
								</filter>
							</defs>
							<mask maskUnits="userSpaceOnUse" x="4.365" y="4.484" width="149.393" height="33.967" id="mask-2">
								<g filter="url(#Adobe_OpacityMaskFilter)">
									<polygon id="path-1" fill="#FFFFFF" points="0,0 157,0 147,52 0,52          "/>
								</g>
							</mask>
							<path mask="url(#mask-2)" fill="#DA0000" d="M17,6.719h4.34v22.322c0,2.879-0.788,5.167-2.363,6.864         s-3.595,2.546-6.059,2.546c-2.65,0-4.751-0.77-6.306-2.31s-2.302-3.8-2.245-6.778l0.064-0.129h4.189         c0,1.977,0.383,3.455,1.149,4.437s1.815,1.472,3.147,1.472c1.174,0,2.148-0.551,2.922-1.654S17,30.902,17,29.041V6.719z          M41.466,34.885c-0.616,1.146-1.403,2.027-2.363,2.643c-0.959,0.615-2.063,0.924-3.309,0.924         c-2.105,0-3.745-0.809-4.92-2.428c-1.174-1.619-1.762-4.133-1.762-7.541V14.754h4.34v13.771c0,2.377,0.283,4.064,0.849,5.06         c0.566,0.995,1.415,1.493,2.546,1.493c1.074,0,1.973-0.25,2.696-0.752c0.724-0.502,1.3-1.217,1.729-2.148V14.754h4.361V38         h-3.889L41.466,34.885z M63.849,32.178c0-0.902-0.297-1.665-0.892-2.288c-0.595-0.623-1.715-1.308-3.362-2.052         c-2.392-0.932-4.165-1.923-5.317-2.976c-1.153-1.053-1.729-2.417-1.729-4.093c0-1.791,0.705-3.313,2.116-4.565         c1.411-1.253,3.262-1.88,5.554-1.88c2.392,0,4.297,0.677,5.715,2.03s2.098,3.04,2.041,5.06l-0.043,0.129h-4.189         c0-1.104-0.312-2.052-0.935-2.847s-1.486-1.192-2.589-1.192c-1.089,0-1.938,0.309-2.546,0.924         c-0.609,0.615-0.913,1.34-0.913,2.17c0,0.889,0.261,1.59,0.784,2.105c0.522,0.516,1.65,1.189,3.384,2.02         c2.435,0.873,4.243,1.865,5.425,2.976s1.772,2.532,1.772,4.265c0,1.92-0.73,3.48-2.191,4.684s-3.38,1.805-5.758,1.805         c-2.564,0-4.583-0.727-6.059-2.181c-1.476-1.454-2.177-3.155-2.105-5.103l0.043-0.129h4.061         c0.057,1.504,0.473,2.589,1.246,3.255s1.733,0.999,2.879,0.999c1.131,0,2.016-0.29,2.653-0.87         C63.53,33.843,63.849,33.094,63.849,32.178z M80.172,8.975v5.779h3.631v3.115h-3.631v13.836c0,1.203,0.179,2.059,0.537,2.567         c0.358,0.509,0.823,0.763,1.396,0.763c0.344,0,0.662-0.021,0.956-0.064c0.293-0.043,0.641-0.107,1.042-0.193l0.451,3.008         c-0.487,0.201-1.035,0.361-1.644,0.483c-0.609,0.122-1.235,0.183-1.88,0.183c-1.647,0-2.926-0.541-3.835-1.622         c-0.91-1.081-1.364-2.79-1.364-5.124V17.869h-3.029v-3.115h3.029V8.975H80.172z M95.185,38h-4.361V14.754h4.361V38z          M95.185,8.652h-4.361V4.484h4.361V8.652z M110.992,35.143c1.089,0,2.006-0.419,2.75-1.257         c0.745-0.838,1.117-1.958,1.117-3.362h3.91l0.043,0.129c0.058,2.191-0.684,4.039-2.224,5.543s-3.405,2.256-5.597,2.256         c-2.893,0-5.109-0.98-6.649-2.943s-2.31-4.461-2.31-7.498v-3.201c0-3.037,0.77-5.543,2.31-7.52s3.749-2.965,6.628-2.965         c2.35,0,4.258,0.784,5.726,2.353s2.181,3.599,2.138,6.091l-0.064,0.129h-3.91c0-1.547-0.354-2.804-1.063-3.771         s-1.65-1.45-2.825-1.45c-1.661,0-2.84,0.674-3.534,2.02s-1.042,3.051-1.042,5.113v3.201c0,2.092,0.348,3.803,1.042,5.135         S109.316,35.143,110.992,35.143z M129.786,38h-4.361V14.754h4.361V38z M129.786,8.652h-4.361V4.484h4.361V8.652z M149.354,38         c-0.157-0.529-0.286-1.049-0.387-1.558c-0.1-0.509-0.164-1.021-0.193-1.536c-0.645,1.045-1.453,1.898-2.428,2.557         c-0.974,0.658-2.055,0.988-3.244,0.988c-1.962,0-3.498-0.619-4.607-1.858c-1.111-1.239-1.666-2.897-1.666-4.974         c0-2.221,0.756-3.964,2.268-5.231c1.51-1.268,3.634-1.901,6.369-1.901h3.244v-2.385c0-1.418-0.314-2.524-0.945-3.319         c-0.63-0.795-1.525-1.192-2.686-1.192c-1.045,0-1.887,0.357-2.523,1.074c-0.639,0.717-0.957,1.611-0.957,2.686l-4.146-0.021         l-0.064-0.129c-0.071-1.791,0.645-3.384,2.148-4.78s3.445-2.095,5.822-2.095c2.292,0,4.15,0.677,5.576,2.03         c1.424,1.354,2.137,3.284,2.137,5.79V32.93c0,0.902,0.055,1.772,0.162,2.61s0.282,1.657,0.525,2.46H149.354z M144.09,35.1         c1.018,0,1.945-0.301,2.783-0.902s1.449-1.354,1.836-2.256v-4.748H145.4c-1.332,0-2.367,0.426-3.104,1.278         c-0.738,0.853-1.107,1.894-1.107,3.126c0,1.045,0.251,1.891,0.752,2.535C142.443,34.777,143.159,35.1,144.09,35.1z"/>
						</g>
					</g>
				</g>
			</g>
		</g>
	</g>
</g>
</svg>